<svg xmlns="http://www.w3.org/2000/svg" version="1.1" xmlns:xlink="http://www.w3.org/1999/xlink" xmlns:svgjs="http://svgjs.dev/svgjs" viewBox="0 0 1422 800"><g shape-rendering="crispEdges" stroke-linejoin="round" fill="none" stroke-width="1" stroke="hsl(0, 0%, 90%)"><polygon points="1422,0 1422,200 1066.5,0"></polygon><polygon points="1066.5,100 1066.5,0 888.75,100"></polygon><polygon points="888.75,100 888.75,0 711,100"></polygon><polygon points="711,100 888.75,100 711,200"></polygon><polygon points="1066.5,200 1066.5,100 888.75,100"></polygon><polygon points="1066.5,300 1066.5,200 888.75,300"></polygon><polygon points="888.75,200 711,300 711,200"></polygon><polygon points="888.75,300 888.75,400 711,400"></polygon><polygon points="888.75,300 888.75,400 1066.5,400"></polygon><polygon points="1244.25,300 1422,300 1244.25,200"></polygon><polygon points="1244.25,200 1066.5,300 1244.25,300"></polygon><polygon points="1244.25,400 1244.25,300 1066.5,400"></polygon><polygon points="1244.25,400 1422,300 1244.25,300"></polygon><polygon points="711,0 533.25,100 533.25,0"></polygon><polygon points="355.5,0 355.5,100 533.25,100"></polygon><polygon points="533.25,200 355.5,100 355.5,200"></polygon><polygon points="711,200 711,100 533.25,200"></polygon><polygon points="355.5,0 355.5,200 0,200"></polygon><polygon points="355.5,300 177.75,300 355.5,200"></polygon><polygon points="177.75,300 0,200 177.75,200"></polygon><polygon points="177.75,300 177.75,400 0,300"></polygon><polygon points="355.5,300 177.75,400 355.5,400"></polygon><polygon points="711,200 711,300 533.25,300"></polygon><polygon points="533.25,200 355.5,200 533.25,300"></polygon><polygon points="533.25,400 533.25,300 355.5,400"></polygon><polygon points="711,300 711,400 533.25,400"></polygon><polygon points="533.25,400 533.25,500 711,400"></polygon><polygon points="533.25,500 355.5,400 533.25,400"></polygon><polygon points="355.5,500 355.5,600 533.25,600"></polygon><polygon points="711,500 533.25,500 533.25,600"></polygon><polygon points="0,400 355.5,600 355.5,400"></polygon><polygon points="355.5,800 0,800 0,600"></polygon><polygon points="533.25,600 533.25,700 711,700"></polygon><polygon points="533.25,700 533.25,600 355.5,600"></polygon><polygon points="533.25,800 533.25,700 355.5,700"></polygon><polygon points="711,800 711,700 533.25,800"></polygon><polygon points="1066.5,400 1422,400 1066.5,600"></polygon><polygon points="888.75,400 1066.5,500 888.75,500"></polygon><polygon points="888.75,400 888.75,500 711,400"></polygon><polygon points="888.75,500 888.75,600 711,500"></polygon><polygon points="1066.5,500 1066.5,600 888.75,500"></polygon><polygon points="711,800 711,600 1066.5,600"></polygon><polygon points="1422,800 1066.5,800 1066.5,600"></polygon></g><g fill="hsl(220, 62%, 45%)" stroke-width="3" stroke="hsl(220, 43%, 13%)"></g></svg>